Coordinates
version=1
nRows=13
nColumns=36
inDegrees=yes

Units are S.I. units (second, meters, Newtons, ...)
If the header above contains a line with 'inDegrees', this indicates whether rotational values are in degrees (yes) or radians (no).

endheader
time	pelvis_tilt	pelvis_list	pelvis_rotation	pelvis_tx	pelvis_ty	pelvis_tz	hip_flexion_r	hip_adduction_r	hip_rotation_r	knee_angle_r	knee_angle_r_beta	ankle_angle_r	subtalar_angle_r	mtp_angle_r	hip_flexion_l	hip_adduction_l	hip_rotation_l	knee_angle_l	knee_angle_l_beta	ankle_angle_l	subtalar_angle_l	mtp_angle_l	lumbar_extension	lumbar_bending	lumbar_rotation	arm_flex_r	arm_add_r	arm_rot_r	elbow_flex_r	pro_sup_r	arm_flex_l	arm_add_l	arm_rot_l	elbow_flex_l	pro_sup_l
      3.36000000	    -20.08670804	     -0.02622729	     -0.38788813	     -0.29713634	      0.79192038	     -0.59957046	     64.32641433	     -9.48708538	     -0.25037132	     65.74430495	      1.14745459	     25.83773208	     -3.84359453	     -7.49999987	     65.29161843	    -11.76290243	     -1.56386687	     65.31471275	      1.13995679	     23.46123824	     -3.02044501	     -7.49999987	    -14.28179748	      0.54602879	     -0.30477299	     74.63737833	     -5.88790592	     12.96229747	     96.18754628	    112.96938487	     73.93424147	     -2.12548135	     13.06739726	     92.39221093	    110.16239177
      3.37000000	    -20.26601653	      0.01358782	     -0.40134377	     -0.29930337	      0.78674045	     -0.59976275	     65.41302819	     -9.59693009	     -0.10491692	     66.91458592	      1.16787984	     25.98642780	     -3.87913787	     -7.49999987	     66.32347493	    -11.80185731	     -1.44727342	     66.43063977	      1.15943339	     23.59870710	     -3.11252855	     -7.49999987	    -14.80412937	      0.62436764	     -0.31970055	     75.58247520	     -5.65038996	     13.15512222	     96.96735521	    113.01863927	     74.62994738	     -2.08280369	     13.07285995	     93.14935100	    110.21372581
      3.38000000	    -20.91486221	      0.05453568	     -0.36895714	     -0.30128504	      0.78090336	     -0.60019918	     66.96506811	     -9.79330066	      0.00354099	     68.04805191	      1.18766256	     26.26495549	     -3.60099998	     -7.49999987	     67.84847327	    -11.79003463	     -1.33108290	     67.49738141	      1.17805154	     23.91419565	     -3.08662956	     -7.49999987	    -14.72953139	      0.70599111	     -0.40747722	     76.11973321	     -5.63314652	     13.83391997	     98.38425430	    113.10836406	     74.83657956	     -2.15255502	     13.31311793	     94.79777975	    110.32537864
      3.39000000	    -21.31723976	      0.03913156	     -0.37588418	     -0.30332407	      0.77550580	     -0.60052812	     68.20904698	     -9.92806763	      0.04227604	     69.11202716	      1.20623243	     26.53634345	     -3.34829484	     -7.49999987	     69.11823354	    -11.88246998	     -1.21178826	     68.57594546	      1.19687604	     24.16968517	     -3.00934927	     -7.49999987	    -14.94899896	      0.76589738	     -0.36520775	     76.74720109	     -5.65695413	     14.15678393	     99.54466447	    113.15989191	     75.29366120	     -2.03042829	     13.55520171	     95.83513957	    110.38237764
      3.40000000	    -21.48976147	      0.03335998	     -0.41800564	     -0.30536426	      0.77062286	     -0.60067174	     69.16265332	    -10.00535681	      0.11020660	     70.10611437	      1.22358252	     26.71065562	     -3.35342131	     -7.49999987	     70.10224790	    -12.01520945	     -1.12197403	     69.60928130	      1.21491115	     24.31650598	     -3.04342138	     -7.49999987	    -15.44900779	      0.81455281	     -0.30642064	     77.50290607	     -5.50991497	     14.26421711	    100.30079761	    113.20565057	     75.92318015	     -1.90972459	     13.69932944	     96.44872705	    110.42880942
      3.41000000	    -22.08338078	     -0.00411451	     -0.45887468	     -0.30726824	      0.76516965	     -0.60070593	     70.52195660	    -10.02153246	      0.19092358	     71.02939741	      1.23969685	     27.09866876	     -3.06613122	     -7.49999987	     71.50544922	    -12.16033003	     -0.98091936	     70.57372411	      1.23174385	     24.69595606	     -2.80049954	     -7.49999987	    -15.43446926	      0.90322864	     -0.23525911	     77.94762201	     -5.60695740	     14.69888279	    101.78692726	    113.30571763	     76.22662958	     -2.07322026	     14.16941876	     97.83524248	    110.49500980
      3.42000000	    -22.46860899	      0.00858378	     -0.46450561	     -0.30919601	      0.75999898	     -0.60090334	     71.71102405	    -10.14490325	      0.27766645	     72.02700616	      1.25710841	     27.39345142	     -2.81180552	     -7.49999987	     72.68282356	    -12.24504107	     -0.90299186	     71.54562718	      1.24870676	     25.01097321	     -2.61246402	     -7.49999987	    -15.65537760	      0.96417639	     -0.26684134	     78.55178192	     -5.50109879	     14.97189402	    102.73244528	    113.35541887	     76.68711764	     -2.15490927	     14.39602559	     98.83287722	    110.51436688
      3.43000000	    -22.84973916	      0.04689537	     -0.46697021	     -0.31101547	      0.75486564	     -0.60112934	     72.87970163	    -10.31641097	      0.32838846	     72.99000513	      1.27391591	     27.68137313	     -2.56276360	     -7.49999987	     73.82829310	    -12.30908600	     -0.83749625	     72.49635813	      1.26530014	     25.27164860	     -2.47540698	     -7.49999987	    -15.83539482	      0.97344822	     -0.32410867	     79.11343108	     -5.41110710	     15.29053697	    103.62808433	    113.40077160	     77.08701687	     -2.20256980	     14.62740171	     99.77020635	    110.56432853
      3.44000000	    -23.19858891	      0.09335571	     -0.49334106	     -0.31286682	      0.74983794	     -0.60129294	     74.00816969	    -10.45753846	      0.40426589	     73.92587369	      1.29024990	     28.00208802	     -2.32180861	     -7.49999987	     74.93123372	    -12.38698652	     -0.76527834	     73.42219778	      1.28145910	     25.52297238	     -2.34714178	     -7.49999987	    -16.07391431	      0.97097204	     -0.36207323	     79.67406648	     -5.38431179	     15.59595086	    104.49021792	    113.44867660	     77.52733877	     -2.33090932	     14.90496664	    100.66822753	    110.62911590
      3.45000000	    -23.54012335	      0.16396416	     -0.53859017	     -0.31471721	      0.74491385	     -0.60141574	     75.12682980	    -10.58146340	      0.52013538	     74.83986044	      1.30620198	     28.37326887	     -2.01811646	     -7.49999987	     75.97816263	    -12.44802289	     -0.68398420	     74.30035021	      1.29678575	     25.82871722	     -2.16841694	     -7.49999987	    -16.31683098	      0.93385477	     -0.40552793	     80.25300321	     -5.31850682	     15.93135037	    105.29216837	    113.49034993	     77.97699947	     -2.48671389	     15.23133487	    101.55777095	    110.68135731
      3.46000000	    -23.65696597	      0.19875532	     -0.53436062	     -0.31655331	      0.74032353	     -0.60164188	     75.97732342	    -10.67527137	      0.69088911	     75.75228108	      1.32212672	     28.53912768	     -2.04953708	     -7.49999987	     76.81601331	    -12.49040472	     -0.61340020	     75.19689506	      1.31243341	     25.96712962	     -2.21294791	     -7.49999987	    -16.79147174	      0.95661064	     -0.41913231	     80.86289280	     -5.12522966	     16.06890966	    105.73052026	    113.51922800	     78.56823405	     -2.37560329	     15.33401698	    101.98589135	    110.71815792
      3.47000000	    -24.24013244	      0.37852716	     -0.51747150	     -0.31831879	      0.73496200	     -0.60191774	     77.37806778	    -10.85595102	      0.95561490	     76.66705286	      1.33809250	     28.98734855	     -1.78159436	     -7.49999987	     78.07895030	    -12.44046452	     -0.64738072	     76.02851733	      1.32694795	     26.35791243	     -2.07546957	     -7.49999987	    -16.69689458	      0.82605339	     -0.54803265	     81.29981817	     -5.31231674	     16.67164283	    106.73588107	    113.58654256	     78.85440278	     -2.73054933	     15.73475807	    103.15348215	    110.81496365
      3.48000000	    -24.36690709	      0.45190353	     -0.52166395	     -0.32004183	      0.73042912	     -0.60217636	     78.23069191	    -10.93954689	      1.16840424	     77.53663751	      1.35326962	     29.15650012	     -1.77960522	     -7.49999987	     78.89315908	    -12.45093048	     -0.56925393	     76.89541875	      1.34207824	     26.48452899	     -2.10813829	     -7.49999987	    -17.14214141	      0.82755091	     -0.51028495	     81.91394680	     -5.12658527	     16.77135641	    107.10206110	    113.60954364	     79.36314616	     -2.61230418	     15.82738984	    103.52979687	    110.84661653
